<svg xmlns="http://www.w3.org/2000/svg" version="1.1" xmlns:xlink="http://www.w3.org/1999/xlink" width="512" height="512"><svg xmlns="http://www.w3.org/2000/svg" version="1.1" xmlns:xlink="http://www.w3.org/1999/xlink" width="512" height="512"><svg width="512" height="512" viewBox="0 0 135.46666 135.46667" version="1.1" id="svg1" xmlns="http://www.w3.org/2000/svg" xmlns:svg="http://www.w3.org/2000/svg">
  <defs id="defs1"></defs>
  <g id="layer1">
    <path d="M 20.094912,124.70146 C 19.572676,77.252925 19.878649,71.705549 20.012062,47.602625 20.031882,44.021738 22.8756,37.22709 26.696943,31.724444 c 3.821344,-5.502645 4.659216,-6.698035 7.61854,-9.43777 2.959324,-2.739735 4.852456,-3.959244 6.674779,-5.170719 1.822322,-1.211475 3.345812,-2.141768 3.815669,-2.353252 0.844878,-0.380297 0.882642,-0.354908 3.435857,2.309962 1.419879,1.481964 3.210269,3.703181 3.978668,4.936035 0.768421,1.232852 1.835206,3.281525 2.370651,4.552606 0.535446,1.27108 1.225754,3.243894 1.534034,4.38403 0.468256,1.731788 0.52404,3.121037 0.560506,8.43997 0.252148,3.529858 -0.431668,7.326987 0.624428,10.77106 1.448017,3.959305 1.892903,4.013477 4.111972,6.6532 2.258613,2.686755 1.026759,4.602212 -1.053453,5.282871 -0.855075,0.279783 -1.378769,0.331784 -1.937205,1.009802 -0.586764,0.712402 -0.619077,1.443642 -0.619077,1.907969 0,1.568731 1.102175,1.737762 1.226335,3.616653 0.092,1.392278 -1.007832,2.091002 -2.064845,2.850973 1.552143,1.243852 0.890153,3.568972 -0.930435,4.585546 -0.632229,0.303332 -0.987887,0.624114 -1.190888,0.890846 -0.203002,0.266733 -0.371866,1.084659 -0.375302,1.8176 -0.0034,0.73294 0.272866,1.441257 0.289163,2.276633 0.229091,1.666946 -0.489377,3.769611 -1.689466,4.927324 -1.688772,1.629149 -3.836868,2.01571 -6.550451,2.040345 -1.314512,-0.01007 -1.445656,0.04846 -3.317462,-0.226819 -2.198295,-0.323267 -4.294547,-0.444405 -5.920475,-0.342127 -1.384451,0.08708 -3.136707,0.37754 -3.893905,0.645425 -0.7572,0.267897 -1.608688,0.743406 -1.892183,1.056678 -0.498313,0.5506 -0.398218,0.68592 3.005488,4.062725 6.533582,6.481997 16.054477,11.6128 18.617867,10.98036 0.647809,-0.1801 0.839517,-0.97501 1.358744,-2.26937 0.478464,-1.1928 1.273636,-2.755507 1.767065,-3.472689 0.493451,-0.717181 1.473022,-1.641438 2.176861,-2.05391 0.816427,-0.478453 2.072736,-0.852892 3.470186,-1.034292 4.743507,-0.686076 7.109413,0.08294 11.009587,-3.750606 1.255078,-1.233499 2.301682,-3.490981 1.41229,-5.729906 -0.488627,-1.230051 -0.449217,-2.215666 -0.378648,-2.575522 0.364098,-1.856471 5.51973,-2.649572 1.977979,-6.141628 -0.75246,-0.741906 -0.173676,-0.241471 1.381142,-1.464549 0.867286,-0.682148 1.513606,-1.595089 0.540124,-3.516265 -0.453236,-0.894395 -0.789956,-1.884733 -0.73547,-2.428999 0.261651,-2.612234 2.936004,-2.495562 4.216926,-3.224417 4.468784,-2.542761 -2.719269,-8.683337 -4.982236,-12.853679 -0.795216,-1.515678 -0.692009,-4.851752 -0.583921,-7.331957 0.06391,-1.465891 0.122784,-4.131145 0.130865,-5.922787 0.01119,-2.476513 -0.145527,-3.861047 -0.653697,-5.774716 -0.367656,-1.384451 -1.202652,-3.738385 -1.855587,-5.230963 -0.652891,-1.492578 -1.810615,-3.717685 -2.572701,-4.944682 -0.762087,-1.226996 -2.357657,-3.368036 -3.545702,-4.757868 -1.188024,-1.389833 -3.315111,-3.42887 -4.726775,-4.531197 -1.411697,-1.102329 -3.620749,-2.553053 -4.90898,-3.223832 -1.288265,-0.670776 -2.220804,-1.294668 -2.072356,-1.386421 0.14846,-0.09176 1.463878,-0.38353 2.923099,-0.6483874 1.459266,-0.264861 4.271849,-0.559546 6.250197,-0.654856 2.136915,-0.1029502 4.951837,-0.023695 6.934607,0.195275 1.835653,0.2027093 4.636864,0.6831744 6.224912,1.0676974 1.588038,0.384525 4.131135,1.188208 5.651345,1.785966 1.520166,0.597754 3.534711,1.472893 4.476764,1.944752 0.94202,0.471859 2.607802,1.403902 3.701739,2.071206 1.093904,0.667306 3.055072,2.045606 4.358077,3.062889 1.303017,1.017283 3.568479,3.099821 5.034371,4.627858 1.46589,1.52804 3.56066,4.043488 4.65507,5.589886 1.09441,1.546398 2.72395,4.277521 3.62119,6.069165 0.89725,1.791642 2.0407,4.523527 2.54099,6.070854 0.5003,1.547328 1.16576,4.012686 1.47878,5.478578 0.31305,1.465893 0.72279,4.294358 0.91053,6.285488 0.25824,2.738386 0.25777,4.650004 -0.003,7.847693 -0.18882,2.325097 -0.6127,5.560079 -0.94198,7.188847 -0.32926,1.628768 -1.06022,4.346381 -1.62433,6.03916 -0.56415,1.692778 -1.69859,4.421931 -2.52103,6.064779 -0.82244,1.64286 -2.44712,4.322372 -3.61035,5.954476 -1.16325,1.632103 -3.58602,4.444719 -5.38393,6.250253 -2.260708,2.270264 -4.273686,3.944743 -6.526501,5.429013 -1.791644,1.180424 -4.456897,2.730023 -5.92279,3.443553 -1.465892,0.71353 -4.264405,1.82951 -6.218924,2.47995 -1.95452,0.65043 -4.753033,1.39188 -6.218925,1.64764 -1.465892,0.25576 -4.264406,0.54516 -6.218925,0.64311 -2.061331,0.10331 -4.921628,0.0303 -6.811207,-0.17387 -1.791632,-0.19356 -4.511226,-0.66247 -6.06084,-0.95648 -1.398769,-0.26539 -1.96176,-0.46861 -2.584162,-0.28367 -0.622167,0.18487 -0.824396,0.8348 -1.73239,2.55816 -0.690576,1.31068 -2.078399,3.31257 -2.988609,4.50096 -0.910244,1.18838 -2.739562,3.14157 -4.065132,4.34041 -1.325614,1.19885 -3.449881,2.87516 -4.720618,3.72515 -1.270726,0.84998 -3.669458,2.18888 -5.330503,2.97532 -1.661044,0.78644 -3.6864,1.65248 -4.500783,1.92455 -0.814383,0.27206 -2.458578,0.68322 -3.653737,0.9137 -1.195188,0.23048 -2.771271,0.41906 -3.50244,0.41906 -1.332196,-0.0312 -3.155406,0.0658 -3.076744,-1.74879 z" style="display:inline;fill:#111111;fill-opacity:1;stroke-width:0.296139" id="path1"></path>
  </g>
</svg></svg><style>@media (prefers-color-scheme: light) { :root { filter: none; } }
@media (prefers-color-scheme: dark) { :root { filter: none; } }
</style></svg>